<svg width="22" height="24" viewBox="0 0 22 24" fill="none" xmlns="http://www.w3.org/2000/svg">
<path d="M0 11V22H6.5C12.825 22 13 21.975 13 21.5C13 21.025 12.825 21 7 21H1V11V1H9.5H18V7C18 12.825 18.025 13 18.5 13C18.975 13 19 12.825 19 6.5V0H9.5H0V11Z" fill="#F8F3F0"/>
<path d="M4 5C4 5.475 4.175 5.5 9.5 5.5C14.825 5.5 15 5.475 15 5C15 4.525 14.825 4.5 9.5 4.5C4.175 4.5 4 4.525 4 5Z" fill="#F8F3F0"/>
<path d="M13 14.5C13 14.825 13.175 15 13.5 15C13.925 15 14 15.175 14 16.225C14 17.2 14.15 17.625 14.65 18.225L15.3 19L14.65 19.775C14.15 20.375 14 20.8 14 21.775C14 22.825 13.925 23 13.5 23C13.175 23 13 23.175 13 23.5C13 23.975 13.175 24 17.5 24C21.825 24 22 23.975 22 23.5C22 23.175 21.825 23 21.5 23C21.075 23 21 22.825 21 21.7C21 20.625 20.875 20.275 20.325 19.7L19.65 19L20.325 18.3C20.875 17.725 21 17.375 21 16.3C21 15.175 21.075 15 21.5 15C21.825 15 22 14.825 22 14.5C22 14.025 21.825 14 17.5 14C13.175 14 13 14.025 13 14.5ZM19.925 16.05C19.825 16.875 19.575 17.275 18.9 17.825C18.4 18.225 18 18.725 18 18.95C18 19.2 18.4 19.7 18.9 20.125C19.575 20.7 19.825 21.125 19.925 21.925C20.05 22.85 20 23 19.6 23C19.325 23 18.975 22.675 18.75 22.2C18 20.625 17 20.625 16.25 22.2C15.775 23.175 15 23.275 15 22.35C15 21.525 15.4 20.8 16.275 20.05C17.2 19.3 17.2 18.7 16.275 17.95C15.4 17.2 15 16.475 15 15.65V15H17.525H20.075L19.925 16.05Z" fill="#F8F3F0"/>
</svg>
